<?xml version="1.0" encoding="UTF-8"?> <!-- Generator: Adobe Illustrator 23.0.1, SVG Export Plug-In . SVG Version: 6.00 Build 0) --> <svg xmlns="http://www.w3.org/2000/svg" xmlns:xlink="http://www.w3.org/1999/xlink" id="Layer_1" x="0px" y="0px" viewBox="0 0 47.2 14.2" style="enable-background:new 0 0 47.2 14.2;" xml:space="preserve"> <style type="text/css"> .st0{fill:#FFFFFF;} </style> <path class="st0" d="M7.1,14.2c3.9,0,7.1-3.2,7.1-7.1C14.2,3.2,11,0,7.1,0C3.2,0,0,3.2,0,7.1C0,11,3.2,14.2,7.1,14.2z"></path> <path class="st0" d="M28.3,12c2.8,0,5-2.2,5-5c0-2.8-2.2-5-5-5c-2.8,0-5,2.2-5,5C23.3,9.8,25.5,12,28.3,12z"></path> <path class="st0" d="M44.8,9.5c1.3,0,2.4-1.1,2.4-2.4c0-1.3-1.1-2.4-2.4-2.4s-2.4,1.1-2.4,2.4C42.4,8.4,43.5,9.5,44.8,9.5z"></path> </svg> 